<?xml version="1.0" encoding="utf-8"?>
<!-- Generator: Adobe Illustrator 22.0.1, SVG Export Plug-In . SVG Version: 6.00 Build 0)  -->
<svg version="1.1" id="Layer_1" xmlns="http://www.w3.org/2000/svg" xmlns:xlink="http://www.w3.org/1999/xlink" x="0px" y="0px"
	 viewBox="0 0 579.8 474.9" style="enable-background:new 0 0 579.8 474.9;" xml:space="preserve">
<style type="text/css">
	.st0{stroke:#000000;stroke-width:3.408;}
	.st1{fill:#FFFFFF;}
</style>
<path class="st0" d="M578.1,66.8v407H1.7v-407c0-43.7,23.2-65,64.6-65c-0.1-0.1,448.4,0,448.4,0C557.2,1.8,578.1,24.2,578.1,66.8z"
	/>
<path class="st1" d="M104.9,103.7h362.5L309.9,298.3v124.6h87.2c29.2,0,29.5,44.1,0,44.1H179.6c-29.5,0-29.5-44.1,0-44.1h85.7V297.3
	L104.9,103.7L104.9,103.7z"/>
<path d="M315.1,241c15.5,0,28.1-12.6,28.1-28.1s-12.6-28.1-28.1-28.1s-28.1,12.6-28.1,28.1S299.5,241,315.1,241z"/>
<path d="M315.1,212.9"/>
</svg>
